# xmcd
#
# Track frame offsets:
#       150
#       15713
#       29424
#       42464
#       59823
#       83393
#       98905
#       115037
#       132291
#       149190
#       170157
#       189495
#
# Disc length: 2816 seconds
#
# Revision: 4
# Processed by: cddbd v1.5PL3 Copyright (c) Steve Scherf et al.
# Submitted via: WaveLab 4.01
#
DISCID=ad0afe0c
DTITLE=Martina McBride - Emotion
DYEAR=1999
DGENRE=Country
TTITLE0=Do what You Do
TTITLE1=Anything's Better Than Feelin' The Blues
TTITLE2=I Love You
TTITLE3=Make Me Believe
TTITLE4=Love's The Only House
TTITLE5=There You Are
TTITLE6=It's My Time
TTITLE7=I Ain't Goin' Nowhere
TTITLE8=Anything And Everything
TTITLE9=From The Ashes
TTITLE10=Good Bye
TTITLE11=This Uncivil War
EXTD=
EXTT0=
EXTT1=
EXTT2=
EXTT3=
EXTT4=
EXTT5=
EXTT6=
EXTT7=
EXTT8=
EXTT9=
EXTT10=
EXTT11=
PLAYORDER=
